<svg width="1242" height="2688" viewBox="0 0 1242 2688" fill="none" xmlns="http://www.w3.org/2000/svg">
  <!-- Background -->
  <rect width="1242" height="2688" fill="url(#splashGradient)"/>
  
  <!-- Main Logo -->
  <g transform="translate(471, 1194)">
    <!-- Logo Background Circle -->
    <circle cx="150" cy="150" r="120" fill="white" opacity="0.1"/>
    <circle cx="150" cy="150" r="100" fill="white" opacity="0.15"/>
    
    <!-- Exchange Symbol -->
    <circle cx="100" cy="150" r="40" fill="white" opacity="0.9"/>
    <path d="M80 150 L120 120 L120 135 L140 135 L140 165 L120 165 L120 180 Z" fill="#6366F1"/>
    
    <circle cx="200" cy="150" r="40" fill="white" opacity="0.9"/>
    <path d="M220 150 L180 180 L180 165 L160 165 L160 135 L180 135 L180 120 Z" fill="#EC4899"/>
    
    <!-- Center Symbol -->
    <circle cx="150" cy="150" r="25" fill="white"/>
    <path d="M130 150 L150 130 L170 150 L150 170 Z" fill="#8B5CF6"/>
  </g>
  
  <!-- App Name -->
  <text x="621" y="1480" text-anchor="middle" font-size="64" fill="white" font-family="Arial, sans-serif" font-weight="bold">TAKAS</text>
  <text x="621" y="1540" text-anchor="middle" font-size="28" fill="white" font-family="Arial, sans-serif" opacity="0.8">Beğen • Eşleş • Takas Yap</text>
  
  <defs>
    <linearGradient id="splashGradient" x1="0%" y1="0%" x2="100%" y2="100%">
      <stop offset="0%" style="stop-color:#EC4899;stop-opacity:1" />
      <stop offset="33%" style="stop-color:#8B5CF6;stop-opacity:1" />
      <stop offset="66%" style="stop-color:#6366F1;stop-opacity:1" />
      <stop offset="100%" style="stop-color:#4F46E5;stop-opacity:1" />
    </linearGradient>
  </defs>
</svg>
